<svg xmlns="http://www.w3.org/2000/svg" width="224.57" height="35" viewBox="0 0 224.57 35"><rect class="svg__rect" x="0" y="0" width="224.57" height="35" fill="#F3D031"/><rect class="svg__rect" x="224.57" y="0" width="0" height="35" fill="#389AD5"/><path class="svg__text" d="M13.61 19.57L13.61 19.57L15.09 19.57Q15.09 20.25 15.43 20.59Q15.76 20.93 16.40 20.93L16.40 20.93Q17.00 20.93 17.35 20.54Q17.71 20.14 17.71 19.45L17.71 19.45L17.71 13.47L19.19 13.47L19.19 19.45Q19.19 20.68 18.42 21.40Q17.66 22.12 16.40 22.12L16.40 22.12Q15.07 22.12 14.34 21.44Q13.61 20.77 13.61 19.57ZM23.56 18.00L23.56 18.00L23.56 17.52Q23.56 16.28 24.01 15.32Q24.45 14.37 25.25 13.86Q26.06 13.35 27.10 13.35L27.10 13.35Q28.15 13.35 28.96 13.85Q29.76 14.35 30.20 15.29Q30.64 16.23 30.65 17.48L30.65 17.48L30.65 17.96Q30.65 19.17 30.26 20.06Q29.88 20.95 29.19 21.47L29.19 21.47L30.65 22.61L29.69 23.48L27.88 22.04Q27.52 22.12 27.11 22.12L27.11 22.12Q26.08 22.12 25.27 21.61Q24.45 21.10 24.01 20.17Q23.57 19.23 23.56 18.00ZM25.05 17.46L25.05 17.96Q25.05 19.34 25.59 20.12Q26.13 20.90 27.11 20.90L27.11 20.90Q28.10 20.90 28.63 20.15Q29.16 19.40 29.16 17.96L29.16 17.96L29.16 17.51Q29.16 16.07 28.62 15.33Q28.08 14.58 27.10 14.58L27.10 14.58Q26.14 14.58 25.60 15.33Q25.06 16.09 25.05 17.46L25.05 17.46ZM35.01 19.16L35.01 19.16L35.01 13.47L36.48 13.47L36.48 19.18Q36.48 20.03 36.92 20.48Q37.35 20.93 38.19 20.93L38.19 20.93Q39.90 20.93 39.90 19.13L39.90 19.13L39.90 13.47L41.38 13.47L41.38 19.17Q41.38 20.53 40.51 21.32Q39.64 22.12 38.19 22.12L38.19 22.12Q36.73 22.12 35.87 21.33Q35.01 20.55 35.01 19.16ZM51.53 22L45.95 22L45.95 13.47L51.49 13.47L51.49 14.66L47.43 14.66L47.43 17.02L50.94 17.02L50.94 18.19L47.43 18.19L47.43 20.82L51.53 20.82L51.53 22ZM57.21 22L55.73 22L55.73 13.47L58.73 13.47Q60.20 13.47 61.00 14.13Q61.81 14.79 61.81 16.05L61.81 16.05Q61.81 16.90 61.39 17.48Q60.98 18.06 60.24 18.37L60.24 18.37L62.16 21.92L62.16 22L60.57 22L58.86 18.71L57.21 18.71L57.21 22ZM57.21 14.66L57.21 17.52L58.73 17.52Q59.48 17.52 59.90 17.15Q60.32 16.77 60.32 16.11L60.32 16.11Q60.32 15.43 59.93 15.05Q59.55 14.68 58.77 14.66L58.77 14.66L57.21 14.66ZM68.24 18.86L65.38 13.47L67.02 13.47L68.98 17.51L70.95 13.47L72.59 13.47L69.73 18.86L69.73 22L68.24 22L68.24 18.86ZM83.26 22L81.72 22L84.94 13.47L86.27 13.47L89.50 22L87.95 22L87.25 20.01L83.95 20.01L83.26 22ZM85.60 15.28L84.37 18.82L86.84 18.82L85.60 15.28ZM94.94 22L93.45 22L93.45 13.47L96.72 13.47Q98.15 13.47 98.99 14.21Q99.83 14.96 99.83 16.18L99.83 16.18Q99.83 17.44 99.01 18.13Q98.18 18.83 96.70 18.83L96.70 18.83L94.94 18.83L94.94 22ZM94.94 14.66L94.94 17.64L96.72 17.64Q97.51 17.64 97.92 17.27Q98.34 16.90 98.34 16.19L98.34 16.19Q98.34 15.50 97.92 15.09Q97.50 14.68 96.76 14.66L96.76 14.66L94.94 14.66ZM105.59 22L104.11 22L104.11 13.47L107.38 13.47Q108.81 13.47 109.65 14.21Q110.49 14.96 110.49 16.18L110.49 16.18Q110.49 17.44 109.66 18.13Q108.84 18.83 107.36 18.83L107.36 18.83L105.59 18.83L105.59 22ZM105.59 14.66L105.59 17.64L107.38 17.64Q108.17 17.64 108.58 17.27Q109.00 16.90 109.00 16.19L109.00 16.19Q109.00 15.50 108.58 15.09Q108.15 14.68 107.42 14.66L107.42 14.66L105.59 14.66ZM120.48 18.00L120.48 18.00L120.48 17.52Q120.48 16.28 120.92 15.32Q121.36 14.37 122.17 13.86Q122.97 13.35 124.02 13.35Q125.06 13.35 125.86 13.85Q126.67 14.35 127.11 15.29Q127.55 16.23 127.56 17.48L127.56 17.48L127.56 17.96Q127.56 19.21 127.12 20.16Q126.69 21.10 125.88 21.61Q125.08 22.12 124.03 22.12L124.03 22.12Q122.99 22.12 122.18 21.61Q121.37 21.10 120.93 20.17Q120.48 19.23 120.48 18.00ZM121.96 17.46L121.96 17.96Q121.96 19.36 122.51 20.13Q123.06 20.90 124.03 20.90L124.03 20.90Q125.01 20.90 125.54 20.15Q126.07 19.40 126.07 17.96L126.07 17.96L126.07 17.51Q126.07 16.09 125.54 15.34Q125.00 14.58 124.02 14.58L124.02 14.58Q123.06 14.58 122.51 15.33Q121.97 16.09 121.96 17.46L121.96 17.46ZM133.50 22L132.02 22L132.02 13.47L133.50 13.47L137.32 19.54L137.32 13.47L138.79 13.47L138.79 22L137.31 22L133.50 15.95L133.50 22ZM150.99 22L149.50 22L149.50 13.47L150.99 13.47L154.80 19.54L154.80 13.47L156.27 13.47L156.27 22L154.79 22L150.99 15.95L150.99 22ZM166.59 22L161.01 22L161.01 13.47L166.55 13.47L166.55 14.66L162.49 14.66L162.49 17.02L166.00 17.02L166.00 18.19L162.49 18.19L162.49 20.82L166.59 20.82L166.59 22ZM172.47 14.66L169.83 14.66L169.83 13.47L176.60 13.47L176.60 14.66L173.94 14.66L173.94 22L172.47 22L172.47 14.66ZM185.71 22L180.35 22L180.35 13.47L181.84 13.47L181.84 20.82L185.71 20.82L185.71 22ZM191.40 22L189.92 22L189.92 13.47L191.40 13.47L191.40 22ZM197.69 22L196.21 22L196.21 13.47L201.63 13.47L201.63 14.66L197.69 14.66L197.69 17.20L201.13 17.20L201.13 18.38L197.69 18.38L197.69 22ZM207.83 18.86L204.96 13.47L206.61 13.47L208.57 17.51L210.54 13.47L212.18 13.47L209.32 18.86L209.32 22L207.83 22L207.83 18.86Z" fill="#FFFFFF"/><path class="svg__text" d="" fill="#FFFFFF" x="237.57"/></svg>