<svg xmlns="http://www.w3.org/2000/svg" width="213.29" height="35" viewBox="0 0 213.29 35"><rect class="svg__rect" x="0" y="0" width="213.29" height="35" fill="#31C4F3"/><rect class="svg__rect" x="213.29" y="0" width="0" height="35" fill="#389AD5"/><path class="svg__text" d="M15.70 22L14.22 22L14.22 13.47L17.22 13.47Q18.69 13.47 19.50 14.13Q20.30 14.79 20.30 16.05L20.30 16.05Q20.30 16.90 19.89 17.48Q19.47 18.06 18.73 18.37L18.73 18.37L20.65 21.92L20.65 22L19.06 22L17.35 18.71L15.70 18.71L15.70 22ZM15.70 14.66L15.70 17.52L17.22 17.52Q17.97 17.52 18.39 17.15Q18.82 16.77 18.82 16.11L18.82 16.11Q18.82 15.43 18.43 15.05Q18.04 14.68 17.26 14.66L17.26 14.66L15.70 14.66ZM30.27 22L24.69 22L24.69 13.47L30.23 13.47L30.23 14.66L26.18 14.66L26.18 17.02L29.68 17.02L29.68 18.19L26.18 18.19L26.18 20.82L30.27 20.82L30.27 22ZM35.25 22L33.71 22L36.93 13.47L38.26 13.47L41.49 22L39.94 22L39.24 20.01L35.94 20.01L35.25 22ZM37.59 15.28L36.35 18.82L38.83 18.82L37.59 15.28ZM45.17 18.19L45.17 18.19L45.17 17.39Q45.17 16.19 45.60 15.27Q46.03 14.35 46.83 13.85Q47.63 13.35 48.68 13.35L48.68 13.35Q50.09 13.35 50.95 14.12Q51.81 14.89 51.95 16.29L51.95 16.29L50.48 16.29Q50.37 15.37 49.94 14.96Q49.51 14.55 48.68 14.55L48.68 14.55Q47.71 14.55 47.19 15.26Q46.67 15.96 46.66 17.33L46.66 17.33L46.66 18.09Q46.66 19.47 47.16 20.20Q47.65 20.92 48.61 20.92L48.61 20.92Q49.48 20.92 49.92 20.53Q50.36 20.14 50.48 19.22L50.48 19.22L51.95 19.22Q51.82 20.59 50.94 21.35Q50.06 22.12 48.61 22.12L48.61 22.12Q47.59 22.12 46.81 21.63Q46.03 21.15 45.61 20.26Q45.19 19.37 45.17 18.19ZM57.95 14.66L55.31 14.66L55.31 13.47L62.08 13.47L62.08 14.66L59.42 14.66L59.42 22L57.95 22L57.95 14.66ZM72.59 22L71.05 22L74.27 13.47L75.60 13.47L78.83 22L77.28 22L76.58 20.01L73.28 20.01L72.59 22ZM74.93 15.28L73.70 18.82L76.17 18.82L74.93 15.28ZM84.27 22L82.78 22L82.78 13.47L86.05 13.47Q87.48 13.47 88.32 14.21Q89.16 14.96 89.16 16.18L89.16 16.18Q89.16 17.44 88.34 18.13Q87.51 18.83 86.03 18.83L86.03 18.83L84.27 18.83L84.27 22ZM84.27 14.66L84.27 17.64L86.05 17.64Q86.84 17.64 87.25 17.27Q87.67 16.90 87.67 16.19L87.67 16.19Q87.67 15.50 87.25 15.09Q86.83 14.68 86.09 14.66L86.09 14.66L84.27 14.66ZM94.92 22L93.44 22L93.44 13.47L96.71 13.47Q98.14 13.47 98.98 14.21Q99.82 14.96 99.82 16.18L99.82 16.18Q99.82 17.44 98.99 18.13Q98.17 18.83 96.69 18.83L96.69 18.83L94.92 18.83L94.92 22ZM94.92 14.66L94.92 17.64L96.71 17.64Q97.50 17.64 97.91 17.27Q98.33 16.90 98.33 16.19L98.33 16.19Q98.33 15.50 97.91 15.09Q97.48 14.68 96.75 14.66L96.75 14.66L94.92 14.66ZM109.81 18.00L109.81 18.00L109.81 17.52Q109.81 16.28 110.25 15.32Q110.69 14.37 111.50 13.86Q112.30 13.35 113.35 13.35Q114.39 13.35 115.19 13.85Q116.00 14.35 116.44 15.29Q116.88 16.23 116.89 17.48L116.89 17.48L116.89 17.96Q116.89 19.21 116.45 20.16Q116.02 21.10 115.21 21.61Q114.41 22.12 113.36 22.12L113.36 22.12Q112.32 22.12 111.51 21.61Q110.70 21.10 110.26 20.17Q109.81 19.23 109.81 18.00ZM111.29 17.46L111.29 17.96Q111.29 19.36 111.84 20.13Q112.39 20.90 113.36 20.90L113.36 20.90Q114.34 20.90 114.87 20.15Q115.40 19.40 115.40 17.96L115.40 17.96L115.40 17.51Q115.40 16.09 114.87 15.34Q114.33 14.58 113.35 14.58L113.35 14.58Q112.39 14.58 111.84 15.33Q111.30 16.09 111.29 17.46L111.29 17.46ZM122.83 22L121.35 22L121.35 13.47L122.83 13.47L126.65 19.54L126.65 13.47L128.12 13.47L128.12 22L126.64 22L122.83 15.95L122.83 22ZM140.32 22L138.83 22L138.83 13.47L140.32 13.47L144.13 19.54L144.13 13.47L145.60 13.47L145.60 22L144.12 22L140.32 15.95L140.32 22ZM155.92 22L150.34 22L150.34 13.47L155.88 13.47L155.88 14.66L151.82 14.66L151.82 17.02L155.33 17.02L155.33 18.19L151.82 18.19L151.82 20.82L155.92 20.82L155.92 22ZM161.80 14.66L159.16 14.66L159.16 13.47L165.93 13.47L165.93 14.66L163.27 14.66L163.27 22L161.80 22L161.80 14.66ZM175.04 22L169.68 22L169.68 13.47L171.17 13.47L171.17 20.82L175.04 20.82L175.04 22ZM180.73 22L179.25 22L179.25 13.47L180.73 13.47L180.73 22ZM187.02 22L185.54 22L185.54 13.47L190.96 13.47L190.96 14.66L187.02 14.66L187.02 17.20L190.46 17.20L190.46 18.38L187.02 18.38L187.02 22ZM197.16 18.86L194.29 13.47L195.94 13.47L197.90 17.51L199.87 13.47L201.51 13.47L198.65 18.86L198.65 22L197.16 22L197.16 18.86Z" fill="#FFFFFF"/><path class="svg__text" d="" fill="#FFFFFF" x="226.29"/></svg>